<?xml version="1.0" encoding="UTF-8" standalone="no"?>
<svg
   width="383.90173"
   height="279.19455"
   viewBox="0 0 101.57393 73.870678"
   xml:space="preserve"
   version="1.1"
   id="svg3"
   xmlns="http://www.w3.org/2000/svg"
   xmlns:svg="http://www.w3.org/2000/svg"><defs
   id="defs3" /><path
   style="fill:#000000;fill-opacity:1;stroke-width:0.264583"
   d="m 78.033652,8.6323584 c -5.74,0.217 -11.533,4.0069996 -12.67,9.8419996 -1.074,6.023 3.432,11.673 8.807,13.842 6.007,2.885 13.149,4.111 17.763,9.313 4.432,4.632 5.232,12.405 1.357,17.62 -2.719,4.158 -7.383,6.945 -12.31,7.482 h -0.002 l -0.34,0.069 -0.988,0.069 0.006,0.088 -0.109,-0.082 -0.677,0.047 c 1.33,2.313 2.697,4.628 3.962,6.948 1.16,0.032 5.87,-2.302 8.655,-4.356 3.742,-2.534 6.402,-6.57 8.392,-10.565 2.969998,-6.918 2.140998,-15.75 -3.32,-21.224 -4.357,-4.937 -10.85,-6.856 -16.812,-9.055 -3.422,-1.473 -7.18,-3.593 -8.392,-7.352 -0.74,-4.227 3.684,-8.052 7.778,-7.226 3.47,0.097 5.449,3.05 6.96,5.664 0.256,0.475 0.494,0.957 0.693,1.431 l 5.183,0.03 c 0.276,-3.164 -1.081,-6.399 -3.285,-8.66 q -0.04,-0.043 -0.082,-0.085 c -0.596,-0.599 -1.23,-1.151 -1.933,-1.585 l -0.003,0.037 c -1.865,-1.1309996 -4.13,-1.7539996 -6.189,-2.1599996 a 13,13 0 0 0 -2.443,-0.131 z"
   id="path4" />
  
      <animate
   attributeName="stroke-dasharray"
   from="0,500"
   to="500,0"
   dur="3s"
   repeatCount="indefinite" />

  <path
   style="fill:#000000;fill-opacity:1;stroke-width:0.264583"
   d="m 38.731652,23.376358 -20.802,38.502 42.18,-0.46 z m 0.23,11.608 11.034,19.997 -21.378,-0.23 z"
   id="path3" /><path
   style="fill:#000000;fill-opacity:1;stroke-width:0.264583"
   d="m 77.320652,0.00235842 q -1.351,0.013 -2.695,0.145 c -5.08,0.536 -9.801,3.10499998 -13.239,6.84299998 -4.748,4.1439996 -6.389,10.9469996 -5.104,16.9819996 0.847,7.553 7.215,13.17 13.936,15.851 3.133,1.16 6.109,2.7 9.245,3.878 3.468,1.327 6.666,4.144 7.02,8.041 0.47,3.288 -2.762,4.49 -5.51,5.125 q -0.007,-0.03 -0.01,-0.063 -0.182,0.083 -0.371,0.149 -0.53,0.113 -1.011,0.207 c -2,0.224 -4.283,-0.574 -5.115,-0.832 a 0.7,0.7 0 0 0 -0.296,-0.097 c -0.74,-0.012 0.484,2.71 0.845,3.494 0.129,0.272 0.287,0.543 0.42,0.814 q 0.057,0.137 0.142,0.274 c 0.321,0.645 0.643,1.29 0.977,1.935 q 0.624,0.17 1.292,0.264 c 0.542,-0.03 1.243,0.026 1.802,0.02 2.83,0.356 5.923,-1.122 8.14,-2.787 3.716,-2.338 5.216,-7.147 4.019,-11.275 -1.279,-4.95 -5.47,-8.963 -10.455,-10.058 -6.272,-2.766 -13.48,-4.874 -17.698,-10.677 -3.643,-4.81 -2.767,-11.814 0.956,-16.312 5.022,-6.6639996 15.187,-8.8789996 22.346,-4.4339996 4.272,2.5599996 7.63,8.6359996 7.935,13.6699996 l 0.038,0.074 6.089998,0.034 c -1.092998,-8.847 -6.803998,-17.7589996 -15.659998,-20.37999958 -2.623,-0.59 -5.336,-0.911 -8.039,-0.886 z"
   id="path1" /><path
   style="fill:#000000;stroke-width:0.264583"
   d="M -3.4839939e-4,72.796358 38.731652,0.96435842 l 39.768,72.06199958 -7.011,0.23 -33.1,-59.535 -27.584,52.41 h 51.834 l 3.448,6.435 z"
   id="path2" /></svg>
